<svg xmlns="http://www.w3.org/2000/svg"  viewBox="0 0 48 48" width="48px" height="48px" baseProfile="basic"><path fill="#f44336" d="M37.228,43H10.772C8.136,43,6,40.864,6,38.228V11.772C6,9.136,8.136,7,10.772,7h26.457	C39.864,7,42,9.136,42,11.772v26.457C42,40.864,39.864,43,37.228,43z"/><path fill="#fff" d="M24.962,12c-0.04,0-0.08,0-0.12,0.01c-2.82,0.05-5.11,2.22-5.35,4.99l-1.248,10c0,2.76,2.24,4,5,4	H26.8c0,0.03-0.01,0.06-0.01,0.09C26.47,34.17,26.38,35,23.5,35H18l-1,3h6.5c5.57,0,5.826-3.663,6.28-6.59	C29.84,30.87,32.424,12,32.424,12H24.962z M26.14,28h-2.586c-1.28,0-2.31-1.03-2.31-2.31L22.462,17c0.11-1.28,1.7-1.98,3-2H28	c0.33,0,0.54,0.09,0.67,0.23c0.27,0.27,0.21,0.75,0.15,1.16l-1.14,7.23l-0.55,3.53C27.06,27.64,26.64,28,26.14,28z"/></svg>